<svg width="168" height="105" viewBox="0 0 168 105" fill="none" xmlns="http://www.w3.org/2000/svg">
<g clip-path="url(#clip0_126_691)">
<path d="M5.05396 44.1823V7.9021C5.05396 7.41497 5.38002 7.09021 5.86911 7.09021H12.0124C12.5015 7.09021 12.8276 7.41497 12.8276 7.9021V22.9552H26.8001V7.9021C26.8001 7.41497 27.1262 7.09021 27.6153 7.09021H33.7586C34.2477 7.09021 34.5737 7.41497 34.5737 7.9021V44.1823C34.5737 44.6695 34.2477 44.9942 33.7586 44.9942H27.6153C27.1262 44.9942 26.8001 44.6695 26.8001 44.1823V29.7787H12.8276V44.1823C12.8276 44.6695 12.5015 44.9942 12.0124 44.9942H5.86911C5.38002 44.9942 5.05396 44.6695 5.05396 44.1823Z" fill="black"/>
<path d="M40.176 31.7272C40.176 23.8741 45.3412 17.8108 52.8443 17.8108C56.8682 17.8108 59.7509 19.4346 61.5442 22.195L61.6517 19.2722C61.6517 18.7851 61.9778 18.4603 62.4668 18.4603H67.795C68.2841 18.4603 68.6102 18.7851 68.6102 19.2722V44.1823C68.6102 44.6695 68.2285 44.9942 67.7394 44.9942H62.4668C61.9778 44.9942 61.6517 44.6695 61.6517 44.1823L61.5442 41.2595C59.6953 43.9683 56.8126 45.6437 52.8443 45.6437C45.3412 45.6437 40.176 39.6321 40.176 31.7272ZM54.4227 38.8202C58.3911 38.8202 61.1626 36.0044 61.1626 31.7272C61.1626 27.4501 58.3911 24.6343 54.4227 24.6343C50.4544 24.6343 47.5161 27.5017 47.5161 31.7272C47.5161 35.9527 50.4507 38.8202 54.4227 38.8202Z" fill="black"/>
<path d="M75.0796 54.4711V19.2722C75.0796 18.7851 75.4057 18.4603 75.8947 18.4603H81.2785C81.7676 18.4603 82.0936 18.7851 82.0936 19.2722L82.2011 22.195C83.9944 19.4346 86.8215 17.8108 90.901 17.8108C98.3486 17.8108 103.514 23.8741 103.514 31.7272C103.514 39.5804 98.3486 45.6437 90.901 45.6437C87.2588 45.6437 84.4835 44.234 82.6383 41.8537V54.4711C82.6383 54.9583 82.3122 55.283 81.8232 55.283H75.8984C75.4094 55.283 75.0833 54.9583 75.0833 54.4711H75.0796ZM89.3226 38.8202C93.239 38.8202 96.1736 36.0044 96.1736 31.7272C96.1736 27.4501 93.239 24.6343 89.3226 24.6343C85.4061 24.6343 82.5272 27.4501 82.5272 31.7272C82.5272 36.0044 85.2987 38.8202 89.3226 38.8202Z" fill="black"/>
<path d="M108.623 54.4711V19.2722C108.623 18.7851 108.949 18.4603 109.438 18.4603H114.822C115.311 18.4603 115.637 18.7851 115.637 19.2722L115.745 22.195C117.538 19.4346 120.365 17.8108 124.445 17.8108C131.892 17.8108 137.057 23.8741 137.057 31.7272C137.057 39.5804 131.892 45.6437 124.445 45.6437C120.802 45.6437 118.031 44.234 116.182 41.8537V54.4711C116.182 54.9583 115.856 55.283 115.367 55.283H109.442C108.953 55.283 108.627 54.9583 108.627 54.4711H108.623ZM122.866 38.8202C126.783 38.8202 129.717 36.0044 129.717 31.7272C129.717 27.4501 126.783 24.6343 122.866 24.6343C118.95 24.6343 116.071 27.4501 116.071 31.7272C116.071 36.0044 118.842 38.8202 122.866 38.8202Z" fill="black"/>
<path d="M145.105 54.3641L148.966 45.0496L138.691 19.3829C138.473 18.7887 138.747 18.464 139.344 18.464H145.324C145.757 18.464 146.139 18.6817 146.302 19.1135L152.664 36.3329L158.97 19.1135C159.133 18.6817 159.515 18.464 159.948 18.464H165.929C166.525 18.464 166.799 18.7887 166.581 19.3829L152.501 54.6335C152.338 55.0653 151.956 55.283 151.523 55.283H145.761C145.164 55.283 144.838 54.9583 145.109 54.3604L145.105 54.3641Z" fill="black"/>
<path d="M24.7844 93.8993V57.619C24.7844 57.1319 25.1105 56.8071 25.5996 56.8071H36.8006C49.5244 56.8071 56.2087 65.0921 56.2087 75.7573C56.2087 86.4225 49.5207 94.7112 36.8006 94.7112H25.5996C25.1105 94.7112 24.7844 94.3864 24.7844 93.8993ZM36.6894 87.836C44.4112 87.836 48.3239 83.5588 48.3239 75.761C48.3239 67.9632 44.4112 63.686 36.6894 63.686H32.5581V87.836H36.6894Z" fill="black"/>
<path d="M60.4512 81.4442C60.4512 73.591 65.6163 67.5277 73.1194 67.5277C77.1433 67.5277 80.026 69.1515 81.8194 71.9119L81.9268 68.9891C81.9268 68.502 82.2529 68.1772 82.742 68.1772H88.0702C88.5592 68.1772 88.8853 68.502 88.8853 68.9891V93.8993C88.8853 94.3864 88.5037 94.7112 88.0146 94.7112H82.742C82.2529 94.7112 81.9268 94.3864 81.9268 93.8993L81.8194 90.9765C79.9705 93.6852 77.0878 95.3607 73.1194 95.3607C65.6163 95.3607 60.4512 89.349 60.4512 81.4442ZM74.6942 88.5371C78.6625 88.5371 81.4377 85.7214 81.4377 81.4442C81.4377 77.167 78.6662 74.3512 74.6942 74.3512C70.7221 74.3512 67.7913 77.2187 67.7913 81.4442C67.7913 85.6697 70.7258 88.5371 74.6942 88.5371Z" fill="black"/>
<path d="M100.194 104.081L104.055 94.7665L93.78 69.0998C93.5614 68.5057 93.8356 68.1809 94.4322 68.1809H100.412C100.846 68.1809 101.228 68.3986 101.391 68.8304L107.753 86.0498L114.059 68.8304C114.222 68.3986 114.604 68.1809 115.037 68.1809H121.017C121.614 68.1809 121.888 68.5057 121.669 69.0998L107.59 104.35C107.426 104.782 107.045 105 106.611 105H100.85C100.253 105 99.9271 104.675 100.198 104.077L100.194 104.081Z" fill="black"/>
<path d="M124.008 90.9765C123.681 90.5964 123.737 90.0022 124.115 89.4081L126.019 86.7547C126.453 86.1052 126.942 86.2122 127.379 86.537C129.606 88.2161 131.455 89.135 133.523 89.135C135.316 89.135 136.513 88.4301 136.513 86.9134C136.513 85.6144 135.698 85.0165 133.741 84.2046L130.369 82.8503C126.946 81.4959 124.552 79.2226 124.552 75.5396C124.552 70.4505 128.902 67.524 133.849 67.524C137.328 67.524 140.537 68.9338 142.764 71.5835C143.09 71.9636 142.982 72.3954 142.708 72.7201L140.314 75.5913C139.933 76.023 139.555 75.9714 139.066 75.5913C137.324 74.1299 135.805 73.3696 134.227 73.3696C132.485 73.3696 131.67 74.3439 131.67 75.4805C131.67 76.7796 132.759 77.4844 134.227 78.0269L137.976 79.4883C141.348 80.8427 144.012 83.1713 143.957 87.2308C143.901 92.5929 139.281 95.3533 133.952 95.3533C129.495 95.3533 126.123 93.4601 124.004 90.9691L124.008 90.9765Z" fill="black"/>
</g>
<defs>
<clipPath id="clip0_126_691">
<rect width="168" height="105" fill="white"/>
</clipPath>
</defs>
</svg>
