<?xml version="1.0" encoding="utf-8"?>
<!-- Generator: Adobe Illustrator 27.3.1, SVG Export Plug-In . SVG Version: 6.00 Build 0)  -->
<svg version="1.1" id="Layer_1" xmlns="http://www.w3.org/2000/svg" xmlns:xlink="http://www.w3.org/1999/xlink" x="0px" y="0px"
	 viewBox="0 0 453.41 726.21" style="enable-background:new 0 0 453.41 726.21;" xml:space="preserve">
<style type="text/css">
	.st0{fill:#BBA308;}
	.st1{fill:#F3A6AC;}
	.st2{fill:#F18B0D;}
	.st3{fill:#F4C200;}
	.st4{fill:#E85221;}
</style>
<g>
	<path class="st0" d="M453.32,278.95c-2.23-19.96-3.46-34.68-4.67-54.81c-1.75-13.81,0.83-36.84-10.19-48.37
		c4.38-13.54,15.05-14.72,3.12-31.38c-11.25-15.05-34.44-0.23-29.83,14.38c-0.96,7.66,14.55,15.01,6.51,21.62
		c-12,12.5-4.56,10.51-8.85,75.37c-0.75,11.25-7.29,27.2,5.17,42.3C429.4,316,455.12,297.51,453.32,278.95z"/>
	<path class="st1" d="M269.49,62.74c18.99-17.53,14.89-65.67-16.57-62.59c-9.68,0.95-17.66,12.5-20.14,20.71
		c-2.33,7.1-1.56,14.54-0.15,22.98c0.74,4.43,4.6,10.53,5.22,11.76c3.96,7.81,7.18,7.91,2.81,13.87c-5.19,7.08-6.24,9.67-6.98,23.49
		c-1.31,31.48-0.11,81.72,1.03,113.15c-0.29,24.36-1.04,48.78,0.84,73.13c0.35,18.75,1.5,34.76,1.43,56.04
		c-0.08,27.81-1.09,45.25-0.4,73.07c1.41,17.28-1.12,29.68,14.83,34.59c7.12,2.19,19.98-2.84,21.61-7.95
		c7.43-23.36,4.44-52.85,3.73-81.38c-0.7-28.13-1.39-56.4-0.58-86.96c0.8-30.36-1.18-54.67-0.67-79.62
		c1.84-23.99-0.8-48.01,0.28-71.96c0.72-12.99,1.71-26.91-2.63-39.34C271.92,71.41,264.93,66.74,269.49,62.74z"/>
	<path class="st2" d="M349.84,355.19C349.84,355.19,349.84,355.19,349.84,355.19c0.85-10.72,3.4-87.15,2.88-104.94
		c-0.5-21.17-1.48-40.53-0.73-61.76c0,0,0,0,0,0c-0.73-15.07-2.95-39.71-0.39-54.53c0,0,0,0,0,0c3.11-10.68,6.92-14.59,10.75-18.38
		c3.3-3.26-7.97-8.95-12.49-20.61c0,0,0,0,0,0c-2.96-11.31,3.46-31.66,17.7-34.66c2.69-0.57,5.48-0.2,8.02,0.85
		c8.73,3.61,14.24,8.29,16.55,15.91c2.23,7.33,0.76,17.8-3.29,24.48c0,0,0,0,0,0c-1.49,2.04-10.8,12.5-8.63,14
		c9.06,6.26,11.82,14.91,13.36,24.87c5.03,32.61-1.87,28.24,0.74,76.88c0.8,14.97-1.46,61.72-1.14,76.69
		c-0.49,21.82,6.43,50.37,0.57,71.84c-1.37,8.91-15.68,18.64-23.82,17.51C359.12,382.02,350.18,365.16,349.84,355.19z"/>
	<path class="st3" d="M109.15,280.04c0.02-0.16,0.04-0.32,0.04-0.48c1.31-32.78,3.8-54.73,2.3-87.64
		c-1.12-31.97-4.21-49.84,10.48-77.39c0.84-1.57,0.75-3.47-0.21-4.96c-9.43-14.65-12.87-31.96-3.72-44.83
		c8.04-11.3,25.47-10.38,31.64,2.04c6.2,12.49,2.69,32.63-4.46,44.99c-0.67,1.16-0.83,2.54-0.47,3.82
		c11.99,41.76,7.57,20.77,10.47,78.8c1.33,26.58-0.41,70.54,1.1,116.9c0.77,23.81,0.89,38.92-0.2,54.72
		c-0.42,6.1-0.46,9.95-4.81,14.25c-4.01,3.96-12.87,6.46-20.13,6.34c-2.39-0.04-9.3-1.46-11.73-2.97c-8.3-5.16-8.52-13.94-9.01-23.7
		C109.28,336.97,106.39,299.13,109.15,280.04z"/>
	<path class="st0" d="M167.71,297.29c0.91-27.14,8.56-53.55,8.28-80.87c0.86-18.79-4.32-37.87,7.31-54.12
		c-6.12-18.06-18.41-19.03-6.16-42.28c11.61-21.03,39.32-2.34,35.26,17.7c1.73,10.3-15.39,21.16-5.65,29.64
		c14.74,16.2,5.58,84.39,12.55,113.02c0.42,15.27,3.44,40.05-12.74,50.79C180.67,337.71,167.18,322.5,167.71,297.29z"/>
	<path class="st2" d="M93.37,299.07c-0.55-29.45-0.73-54.69-0.21-84.26c-0.39-10.56,1.8-34.31-2.2-44.08
		c-4.57-11.17-9.57-8.36-8.95-15.6c0.08-0.97,3.16-7.78,5.9-12.81c6.29-11.52,0.84-37.87-19.65-38.02
		c-5.7-0.04-13.09,6.04-15.94,10.9c-4.86,8.78-4.84,21.72,1.36,32.99c0.94,1.71,9.15,8.77,6.63,11.26
		c-11,11.85-8.76,11.49-9.94,26.36c0.49,6.49,1.61,34.53,1.6,41.01c-0.42,7.08-0.62,14.16-1.19,21.21c0.38,15.64,1.98,31.36,0.62,47
		c-0.04,0-0.09,0-0.13-0.01c-0.29,9.39-0.07,18.77,1.31,28.09c0.48,5.19,3.33,9.42,7.6,12.43c5.06,2.49,15.55,5.27,20.64,2.44
		c2.57-1.53,5.73-2.06,7.34-4.74C95.57,324.03,92.79,310.36,93.37,299.07z"/>
	<path class="st3" d="M335.66,259.73c0.01-0.2,0.01-0.4,0-0.6c-0.91-16.7-0.06-20.72-1.79-37.52c-0.79-10.08,1.38-53.35-1.6-63.54
		c-2.59-8.87-9.8-7.94-7.45-13.65c5.25-12.76,12.27-20.54,10.55-30.33c-0.93-5.31-2.21-11.58-7.97-16.34
		c-12.64-10.45-26.68-2.26-31.05,13.22c-0.07,0.23-0.12,0.47-0.16,0.71c-1.06,6.04-0.41,12.54,1.66,18.26
		c2.29,6.35,6.82,9.48,8.26,13.92c0.49,1.52,0.8,3.52-0.39,4.58c-2.7,2.39-4.78,4.55-6.7,9.49c-6.31,16.28-4.93,46.07-4.29,65.51
		c0.62,18.77-0.56,63.09,0.34,83.36c0.33,7.29,2,18.57,5.26,27.99c1.07,3.09,5.87,13.49,13.51,15.08
		c10.55,2.19,12.38-2.48,17.51-10.44C337.28,330.21,335.06,271.58,335.66,259.73z"/>
	<path class="st1" d="M0.07,241.85C1.19,224.02-0.2,215.99,8,207.24c2.17-2.31,2-5.97-0.49-7.94c-2.48-1.96-4.61-6-5.57-8.49
		c-11.59-39.57,47.76-41.16,33.96,2.62c-6.82,10.25-6.2,6.53-1.1,16.04c4.26,7.96,4.44,29.78,4.48,33.52
		C39.86,294.58-1.92,297.39,0.07,241.85z"/>
</g>
<g>
	<g>
		<path class="st4" d="M13.64,561.41V463.1c0-1.32,0.88-2.2,2.2-2.2h16.58c1.32,0,2.2,0.88,2.2,2.2v40.79h37.71V463.1
			c0-1.32,0.88-2.2,2.2-2.2h16.58c1.32,0,2.2,0.88,2.2,2.2v98.31c0,1.32-0.88,2.2-2.2,2.2H74.53c-1.32,0-2.2-0.88-2.2-2.2v-39.03
			H34.62v39.03c0,1.32-0.88,2.2-2.2,2.2H15.84C14.52,563.61,13.64,562.73,13.64,561.41z"/>
		<path class="st4" d="M108.43,527.66c0-21.28,13.94-37.71,34.19-37.71c10.86,0,18.64,4.4,23.48,11.88l0.29-7.92
			c0-1.32,0.88-2.2,2.2-2.2h14.38c1.32,0,2.2,0.88,2.2,2.2v67.5c0,1.32-1.03,2.2-2.35,2.2h-14.23c-1.32,0-2.2-0.88-2.2-2.2
			l-0.29-7.92c-4.99,7.34-12.77,11.88-23.48,11.88C122.37,565.37,108.43,549.09,108.43,527.66z M146.87,546.89
			c10.71,0,18.19-7.63,18.19-19.22c0-11.59-7.48-19.22-18.19-19.22c-10.71,0-18.64,7.77-18.64,19.22
			C128.24,539.26,136.16,546.89,146.87,546.89z"/>
		<path class="st4" d="M202.63,589.29v-95.38c0-1.32,0.88-2.2,2.2-2.2h14.53c1.32,0,2.2,0.88,2.2,2.2l0.29,7.92
			c4.84-7.48,12.47-11.88,23.48-11.88c20.1,0,34.04,16.43,34.04,37.71c0,21.42-13.94,37.71-34.04,37.71
			c-9.83,0-17.32-3.82-22.3-10.27v34.19c0,1.32-0.88,2.2-2.2,2.2h-15.99C203.51,591.49,202.63,590.61,202.63,589.29z M241.07,546.89
			c10.57,0,18.49-7.63,18.49-19.22c0-11.45-7.92-19.22-18.49-19.22c-10.86,0-18.34,7.63-18.34,19.22
			C222.73,539.26,230.21,546.89,241.07,546.89z"/>
		<path class="st4" d="M293.16,589.29v-95.38c0-1.32,0.88-2.2,2.2-2.2h14.53c1.32,0,2.2,0.88,2.2,2.2l0.29,7.92
			c4.84-7.48,12.47-11.88,23.48-11.88c20.1,0,34.04,16.43,34.04,37.71c0,21.42-13.94,37.71-34.04,37.71
			c-9.83,0-17.31-3.82-22.3-10.27v34.19c0,1.32-0.88,2.2-2.2,2.2h-15.99C294.04,591.49,293.16,590.61,293.16,589.29z M331.61,546.89
			c10.57,0,18.49-7.63,18.49-19.22c0-11.45-7.92-19.22-18.49-19.22c-10.86,0-18.34,7.63-18.34,19.22
			C313.27,539.26,320.75,546.89,331.61,546.89z"/>
		<path class="st4" d="M391.62,589l10.42-25.24l-27.73-69.55c-0.59-1.61,0.15-2.49,1.76-2.49h16.14c1.17,0,2.2,0.59,2.64,1.76
			l17.17,46.66l17.02-46.66c0.44-1.17,1.47-1.76,2.64-1.76h16.14c1.61,0,2.35,0.88,1.76,2.49l-38,95.52
			c-0.44,1.17-1.47,1.76-2.64,1.76h-15.55C391.77,591.49,390.89,590.61,391.62,589z"/>
	</g>
	<g>
		<path class="st4" d="M66.89,696.13v-98.31c0-1.32,0.88-2.2,2.2-2.2h30.23c34.34,0,52.38,22.45,52.38,51.35
			c0,28.91-18.05,51.36-52.38,51.36H69.09C67.77,698.33,66.89,697.45,66.89,696.13z M99.02,679.7c20.84,0,31.4-11.59,31.4-32.72
			c0-21.13-10.56-32.72-31.4-32.72H87.87v65.44H99.02z"/>
		<path class="st4" d="M163.15,662.38c0-21.28,13.94-37.71,34.19-37.71c10.86,0,18.64,4.4,23.48,11.88l0.29-7.92
			c0-1.32,0.88-2.2,2.2-2.2h14.38c1.32,0,2.2,0.88,2.2,2.2v67.5c0,1.32-1.03,2.2-2.35,2.2h-14.23c-1.32,0-2.2-0.88-2.2-2.2
			l-0.29-7.92c-4.99,7.34-12.77,11.88-23.48,11.88C177.09,700.09,163.15,683.8,163.15,662.38z M201.59,681.61
			c10.71,0,18.2-7.63,18.2-19.22c0-11.59-7.48-19.22-18.2-19.22c-10.71,0-18.63,7.77-18.63,19.22
			C182.96,673.98,190.88,681.61,201.59,681.61z"/>
		<path class="st4" d="M270.41,723.72l10.42-25.24l-27.73-69.55c-0.59-1.61,0.15-2.49,1.76-2.49h16.14c1.17,0,2.2,0.59,2.64,1.76
			l17.17,46.66l17.02-46.66c0.44-1.17,1.47-1.76,2.64-1.76h16.14c1.61,0,2.35,0.88,1.76,2.49l-38,95.52
			c-0.44,1.17-1.47,1.76-2.64,1.76h-15.55C270.56,726.21,269.67,725.33,270.41,723.72z"/>
		<path class="st4" d="M334.68,688.21c-0.88-1.03-0.73-2.64,0.29-4.25l5.14-7.19c1.17-1.76,2.49-1.47,3.67-0.59
			c6.01,4.55,11,7.04,16.58,7.04c4.84,0,8.07-1.91,8.07-6.02c0-3.52-2.2-5.14-7.48-7.34l-9.1-3.67c-9.24-3.67-15.7-9.83-15.7-19.81
			c0-13.79,11.74-21.72,25.09-21.72c9.39,0,18.05,3.82,24.06,11c0.88,1.03,0.59,2.2-0.15,3.08l-6.46,7.78
			c-1.03,1.17-2.05,1.03-3.37,0c-4.7-3.96-8.8-6.02-13.06-6.02c-4.7,0-6.9,2.64-6.9,5.72c0,3.52,2.94,5.43,6.9,6.9l10.12,3.96
			c9.1,3.67,16.29,9.98,16.14,20.98c-0.15,14.53-12.62,22.01-27,22.01C349.5,700.09,340.4,694.96,334.68,688.21z"/>
	</g>
</g>
</svg>
