<?xml version="1.0" encoding="utf-8"?>
<!-- Generator: Adobe Illustrator 27.3.1, SVG Export Plug-In . SVG Version: 6.00 Build 0)  -->
<svg version="1.1" id="Layer_1" xmlns="http://www.w3.org/2000/svg" xmlns:xlink="http://www.w3.org/1999/xlink" x="0px" y="0px"
	 viewBox="0 0 1169.95 443.46" style="enable-background:new 0 0 1169.95 443.46;" xml:space="preserve">
<style type="text/css">
	.st0{fill:#BBA308;}
	.st1{fill:#F3A6AC;}
	.st2{fill:#F18B0D;}
	.st3{fill:#F4C200;}
	.st4{fill:#E85221;}
</style>
<g>
	<path class="st0" d="M453.32,278.95c-2.23-19.96-3.46-34.68-4.67-54.81c-1.75-13.81,0.83-36.84-10.19-48.37
		c4.38-13.54,15.05-14.72,3.12-31.38c-11.25-15.05-34.44-0.23-29.83,14.38c-0.96,7.66,14.55,15.01,6.51,21.62
		c-12,12.5-4.56,10.51-8.85,75.37c-0.75,11.25-7.29,27.2,5.17,42.3C429.4,316,455.12,297.51,453.32,278.95z"/>
	<path class="st1" d="M269.49,62.74c18.99-17.53,14.89-65.67-16.57-62.59c-9.68,0.95-17.66,12.5-20.14,20.71
		c-2.33,7.1-1.56,14.54-0.15,22.98c0.74,4.43,4.6,10.53,5.22,11.76c3.96,7.81,7.18,7.91,2.81,13.87c-5.19,7.08-6.24,9.67-6.98,23.49
		c-1.31,31.48-0.11,81.72,1.03,113.15c-0.29,24.36-1.04,48.78,0.84,73.13c0.35,18.75,1.5,34.76,1.43,56.04
		c-0.08,27.81-1.09,45.25-0.4,73.07c1.41,17.28-1.12,29.68,14.83,34.59c7.12,2.19,19.98-2.84,21.61-7.95
		c7.43-23.36,4.44-52.85,3.73-81.38c-0.7-28.13-1.39-56.4-0.58-86.96c0.8-30.36-1.18-54.67-0.67-79.62
		c1.84-23.99-0.8-48.01,0.28-71.96c0.72-12.99,1.71-26.91-2.63-39.34C271.92,71.41,264.93,66.74,269.49,62.74z"/>
	<path class="st2" d="M349.84,355.19C349.84,355.19,349.84,355.19,349.84,355.19c0.85-10.72,3.4-87.15,2.88-104.94
		c-0.5-21.17-1.48-40.53-0.73-61.76c0,0,0,0,0,0c-0.73-15.07-2.95-39.71-0.39-54.53c0,0,0,0,0,0c3.11-10.68,6.92-14.59,10.75-18.38
		c3.3-3.26-7.97-8.95-12.49-20.61c0,0,0,0,0,0c-2.96-11.31,3.46-31.66,17.7-34.66c2.69-0.57,5.48-0.2,8.02,0.85
		c8.73,3.61,14.24,8.29,16.55,15.91c2.23,7.33,0.76,17.8-3.29,24.48c0,0,0,0,0,0c-1.49,2.04-10.8,12.5-8.63,14
		c9.06,6.26,11.82,14.91,13.36,24.87c5.03,32.61-1.87,28.24,0.74,76.88c0.8,14.97-1.46,61.72-1.14,76.69
		c-0.49,21.82,6.43,50.37,0.57,71.84c-1.37,8.91-15.68,18.64-23.82,17.51C359.12,382.02,350.18,365.16,349.84,355.19z"/>
	<path class="st3" d="M109.15,280.04c0.02-0.16,0.04-0.32,0.04-0.48c1.31-32.78,3.8-54.73,2.3-87.64
		c-1.12-31.97-4.21-49.84,10.48-77.39c0.84-1.57,0.75-3.47-0.21-4.96c-9.43-14.65-12.87-31.96-3.72-44.83
		c8.04-11.3,25.47-10.38,31.64,2.04c6.2,12.49,2.69,32.63-4.46,44.99c-0.67,1.16-0.83,2.54-0.47,3.82
		c11.99,41.76,7.57,20.77,10.47,78.8c1.33,26.58-0.41,70.54,1.1,116.9c0.77,23.81,0.89,38.92-0.2,54.72
		c-0.42,6.1-0.46,9.95-4.81,14.25c-4.01,3.96-12.87,6.46-20.13,6.34c-2.39-0.04-9.3-1.46-11.73-2.97c-8.3-5.16-8.52-13.94-9.01-23.7
		C109.28,336.97,106.39,299.13,109.15,280.04z"/>
	<path class="st0" d="M167.71,297.29c0.91-27.14,8.56-53.55,8.28-80.87c0.86-18.79-4.32-37.87,7.31-54.12
		c-6.12-18.06-18.41-19.03-6.16-42.28c11.61-21.03,39.32-2.34,35.26,17.7c1.73,10.3-15.39,21.16-5.65,29.64
		c14.74,16.2,5.58,84.39,12.55,113.02c0.42,15.27,3.44,40.05-12.74,50.79C180.67,337.71,167.18,322.5,167.71,297.29z"/>
	<path class="st2" d="M93.37,299.07c-0.55-29.45-0.73-54.69-0.21-84.26c-0.39-10.56,1.8-34.31-2.2-44.08
		c-4.57-11.17-9.57-8.36-8.95-15.6c0.08-0.97,3.16-7.78,5.9-12.81c6.29-11.52,0.84-37.87-19.65-38.02
		c-5.7-0.04-13.09,6.04-15.94,10.9c-4.86,8.78-4.84,21.72,1.36,32.99c0.94,1.71,9.15,8.77,6.63,11.26
		c-11,11.85-8.76,11.49-9.94,26.36c0.49,6.49,1.61,34.53,1.6,41.01c-0.42,7.08-0.62,14.16-1.19,21.21c0.38,15.64,1.98,31.36,0.62,47
		c-0.04,0-0.09,0-0.13-0.01c-0.29,9.39-0.07,18.77,1.31,28.09c0.48,5.19,3.33,9.42,7.6,12.43c5.06,2.49,15.55,5.27,20.64,2.44
		c2.57-1.53,5.73-2.06,7.34-4.74C95.57,324.03,92.79,310.36,93.37,299.07z"/>
	<path class="st3" d="M335.66,259.73c0.01-0.2,0.01-0.4,0-0.6c-0.91-16.7-0.06-20.72-1.79-37.52c-0.79-10.08,1.38-53.35-1.6-63.54
		c-2.59-8.87-9.8-7.94-7.45-13.65c5.25-12.76,12.27-20.54,10.55-30.33c-0.93-5.31-2.21-11.58-7.97-16.34
		c-12.64-10.45-26.68-2.26-31.05,13.22c-0.07,0.23-0.12,0.47-0.16,0.71c-1.06,6.04-0.41,12.54,1.66,18.26
		c2.29,6.35,6.82,9.48,8.26,13.92c0.49,1.52,0.8,3.52-0.39,4.58c-2.7,2.39-4.78,4.55-6.7,9.49c-6.31,16.28-4.93,46.07-4.29,65.51
		c0.62,18.77-0.56,63.09,0.34,83.36c0.33,7.29,2,18.57,5.26,27.99c1.07,3.09,5.87,13.49,13.51,15.08
		c10.55,2.19,12.38-2.48,17.51-10.44C337.28,330.21,335.06,271.58,335.66,259.73z"/>
	<path class="st1" d="M0.07,241.85C1.19,224.02-0.2,215.99,8,207.24c2.17-2.31,2-5.97-0.49-7.94c-2.48-1.96-4.61-6-5.57-8.49
		c-11.59-39.57,47.76-41.16,33.96,2.62c-6.82,10.25-6.2,6.53-1.1,16.04c4.26,7.96,4.44,29.78,4.48,33.52
		C39.86,294.58-1.92,297.39,0.07,241.85z"/>
</g>
<g>
	<g>
		<g>
			<path class="st4" d="M495.86,189.86c-0.72-1-0.72-2.01,0.29-3.15l8.31-9.6c1-1.15,2.15-1.29,3.3-0.29
				c6.3,6.45,12.04,9.89,20.2,9.89c8.45,0,14.04-3.58,14.04-10.75c0-6.73-5.02-9.17-12.04-12.32l-12.18-5.73
				c-10.6-4.87-20.06-12.47-20.06-27.37c0-18.2,13.9-28.23,30.95-28.23c11.89,0,21.49,4.73,29.37,13.18c1,1,1,2.15,0.14,3.3
				l-8.17,9.89c-0.86,1.15-2.01,1.43-3.15,0.57c-6.16-5.45-11.18-8.17-17.48-8.17c-7.31,0-11.89,3.58-11.89,9.6
				c0,5.87,4.01,8.17,11.75,11.75l10.32,4.73c10.89,5.16,22.35,11.89,22.35,28.8c0,20.2-16.48,29.52-33.53,29.52
				C512.77,205.48,501.73,197.89,495.86,189.86z"/>
			<path class="st4" d="M573.24,168.66c0-20.78,15.62-36.82,36.82-36.82c21.06,0,36.68,16.05,36.68,36.82
				c0,20.78-15.62,36.83-36.68,36.83C588.85,205.48,573.24,189.43,573.24,168.66z M610.06,187.28c9.89,0,17.62-7.16,17.62-18.63
				c0-11.46-7.74-18.63-17.62-18.63c-10.03,0-17.77,7.16-17.77,18.63C592.29,180.12,600.03,187.28,610.06,187.28z"/>
			<path class="st4" d="M659.35,176.54V135.7c0-1.29,0.86-2.15,2.15-2.15h15.48c1.29,0,2.15,0.86,2.15,2.15v36.4
				c0,9.89,4.58,15.19,13.04,15.19c8.31,0,13.76-5.3,13.76-15.19v-36.4c0-1.29,0.86-2.15,2.15-2.15h15.33
				c1.29,0,2.29,0.86,2.29,2.15v65.91c0,1.29-1,2.15-2.29,2.15h-14.76c-1.29,0-2.01-0.57-2.15-2.29l-0.57-8.31
				c-4.01,7.17-10.75,12.32-21.21,12.32C669.96,205.48,659.35,194.88,659.35,176.54z"/>
			<path class="st4" d="M742.6,201.61V135.7c0-1.29,0.86-2.15,2.15-2.15h14.9c1.29,0,2.15,0.57,2.15,2.29l0.57,8.31
				c4.01-7.17,10.75-12.32,21.21-12.32c14.62,0,25.36,10.6,25.36,28.94v40.84c0,1.29-1,2.15-2.29,2.15h-15.33
				c-1.29,0-2.15-0.86-2.15-2.15v-36.4c0-9.89-4.58-15.19-13.04-15.19c-8.31,0-13.76,5.3-13.76,15.19v36.4
				c0,1.29-0.86,2.15-2.15,2.15h-15.48C743.46,203.76,742.6,202.9,742.6,201.61z"/>
			<path class="st4" d="M822.27,168.66c0-20.78,13.61-36.82,33.39-36.82c9.74,0,16.91,3.58,21.64,9.89v-38.26
				c0-1.29,0.86-2.15,2.15-2.15h15.62c1.29,0,2.15,0.86,2.15,2.15v98.15c0,1.29-1,2.15-2.29,2.15h-13.9c-1.29,0-2.15-0.86-2.15-2.15
				l-0.29-7.74c-4.87,7.17-12.47,11.61-22.93,11.61C835.88,205.48,822.27,189.58,822.27,168.66z M859.81,187.43
				c10.46,0,17.77-7.45,17.77-18.77c0-11.32-7.31-18.77-17.77-18.77c-10.46,0-18.2,7.59-18.2,18.77
				C841.62,179.98,849.35,187.43,859.81,187.43z"/>
		</g>
		<path class="st4" d="M921.09,182.48c0-10.92,8.21-19.36,19.36-19.36c11.08,0,19.29,8.44,19.29,19.36
			c0,10.93-8.21,19.36-19.29,19.36C929.3,201.84,921.09,193.4,921.09,182.48z M940.45,192.27c5.2,0,9.27-3.77,9.27-9.79
			c0-6.03-4.07-9.79-9.27-9.79c-5.27,0-9.34,3.77-9.34,9.79C931.11,188.51,935.18,192.27,940.45,192.27z"/>
		<path class="st4" d="M969.24,199.81v-27.73h-4.37c-0.68,0-1.13-0.45-1.13-1.13v-5.8c0-0.68,0.45-1.13,1.13-1.13h4.37v-5.73
			c0-8.59,4.75-12.43,12.66-12.43c2.11,0,3.69,0.15,5.65,1.13c0.45,0.23,0.68,0.68,0.68,1.13v6.86c0,0.53-0.45,0.6-0.98,0.53
			c-1.21-0.23-2.18-0.38-3.01-0.38c-3.69,0-4.52,1.88-4.52,4.6v4.3h7.38c0.68,0,1.13,0.45,1.13,1.13v5.8c0,0.68-0.45,1.13-1.13,1.13
			h-7.38v27.73c0,0.68-0.45,1.13-1.13,1.13h-8.21C969.69,200.94,969.24,200.49,969.24,199.81z"/>
	</g>
	<g>
		<path class="st4" d="M495.35,312.77v-96c0-1.29,0.86-2.15,2.15-2.15h16.19c1.29,0,2.15,0.86,2.15,2.15v39.84h36.82v-39.84
			c0-1.29,0.86-2.15,2.15-2.15H571c1.29,0,2.15,0.86,2.15,2.15v96c0,1.29-0.86,2.15-2.15,2.15h-16.19c-1.29,0-2.15-0.86-2.15-2.15
			v-38.12h-36.82v38.12c0,1.29-0.86,2.15-2.15,2.15H497.5C496.21,314.92,495.35,314.06,495.35,312.77z"/>
		<path class="st4" d="M587.91,279.82c0-20.78,13.61-36.82,33.39-36.82c10.6,0,18.2,4.3,22.93,11.61l0.29-7.74
			c0-1.29,0.86-2.15,2.15-2.15h14.04c1.29,0,2.15,0.86,2.15,2.15v65.91c0,1.29-1,2.15-2.29,2.15h-13.9c-1.29,0-2.15-0.86-2.15-2.15
			l-0.29-7.74c-4.87,7.17-12.47,11.61-22.93,11.61C601.52,316.64,587.91,300.74,587.91,279.82z M625.46,298.59
			c10.46,0,17.77-7.45,17.77-18.77c0-11.32-7.31-18.77-17.77-18.77c-10.46,0-18.2,7.59-18.2,18.77
			C607.26,291.14,614.99,298.59,625.46,298.59z"/>
		<path class="st4" d="M679.9,340v-93.14c0-1.29,0.86-2.15,2.15-2.15h14.19c1.29,0,2.15,0.86,2.15,2.15l0.29,7.74
			c4.73-7.31,12.18-11.61,22.93-11.61c19.63,0,33.24,16.05,33.24,36.82c0,20.92-13.61,36.83-33.24,36.83
			c-9.6,0-16.91-3.73-21.78-10.03V340c0,1.29-0.86,2.15-2.15,2.15h-15.62C680.76,342.15,679.9,341.29,679.9,340z M717.44,298.59
			c10.32,0,18.06-7.45,18.06-18.77c0-11.18-7.74-18.77-18.06-18.77c-10.6,0-17.91,7.45-17.91,18.77
			C699.53,291.14,706.84,298.59,717.44,298.59z"/>
		<path class="st4" d="M768.31,340v-93.14c0-1.29,0.86-2.15,2.15-2.15h14.19c1.29,0,2.15,0.86,2.15,2.15l0.29,7.74
			c4.73-7.31,12.18-11.61,22.93-11.61c19.63,0,33.24,16.05,33.24,36.82c0,20.92-13.61,36.83-33.24,36.83
			c-9.6,0-16.91-3.73-21.78-10.03V340c0,1.29-0.86,2.15-2.15,2.15h-15.62C769.17,342.15,768.31,341.29,768.31,340z M805.85,298.59
			c10.32,0,18.06-7.45,18.06-18.77c0-11.18-7.74-18.77-18.06-18.77c-10.6,0-17.91,7.45-17.91,18.77
			C787.94,291.14,795.25,298.59,805.85,298.59z"/>
		<path class="st4" d="M855.86,221.21c0-6.02,4.73-10.89,11.03-10.89s10.89,4.87,10.89,10.89c0,6.16-4.58,11.03-10.89,11.03
			S855.86,227.37,855.86,221.21z M856.86,246.86c0-1.29,0.86-2.15,2.15-2.15h15.62c1.29,0,2.15,0.86,2.15,2.15v65.91
			c0,1.29-0.86,2.15-2.15,2.15h-15.62c-1.29,0-2.15-0.86-2.15-2.15V246.86z"/>
		<path class="st4" d="M893.97,312.77v-65.91c0-1.29,0.86-2.15,2.15-2.15h14.9c1.29,0,2.15,0.57,2.15,2.29l0.57,8.31
			c4.01-7.17,10.75-12.32,21.21-12.32c14.62,0,25.36,10.6,25.36,28.94v40.84c0,1.29-1,2.15-2.29,2.15h-15.33
			c-1.29,0-2.15-0.86-2.15-2.15v-36.4c0-9.89-4.58-15.19-13.04-15.19c-8.31,0-13.76,5.3-13.76,15.19v36.4
			c0,1.29-0.86,2.15-2.15,2.15h-15.48C894.83,314.92,893.97,314.06,893.97,312.77z"/>
		<path class="st4" d="M973.64,279.53c0-20.64,14.47-36.54,36.11-36.54c21.35,0,33.67,15.76,33.67,33.53
			c0,6.88-1.58,10.75-7.74,10.75h-42.7c2.15,8.88,9.46,13.76,20.78,13.76c5.45,0,10.6-1,16.33-4.3c1-0.57,1.72-0.43,2.44,0.57
			l5.3,7.31c0.72,1,0.57,2.01-0.72,3.15c-6.02,6.02-15.05,8.89-24.93,8.89C989.12,316.64,973.64,300.74,973.64,279.53z
			 M1025.8,273.37c-1.15-9.31-7.45-14.04-15.9-14.04c-8.74,0-15.48,4.73-17.2,14.04H1025.8z"/>
		<path class="st4" d="M1053.03,305.04c-0.86-1-0.72-2.58,0.29-4.15l5.01-7.02c1.15-1.72,2.44-1.43,3.58-0.57
			c5.87,4.44,10.75,6.88,16.19,6.88c4.73,0,7.88-1.86,7.88-5.87c0-3.44-2.15-5.02-7.31-7.17l-8.88-3.58
			c-9.03-3.58-15.33-9.6-15.33-19.34c0-13.47,11.46-21.21,24.5-21.21c9.17,0,17.63,3.73,23.5,10.75c0.86,1,0.57,2.15-0.14,3.01
			l-6.3,7.59c-1,1.15-2.01,1-3.3,0c-4.58-3.87-8.6-5.87-12.75-5.87c-4.58,0-6.73,2.58-6.73,5.59c0,3.44,2.87,5.3,6.73,6.74
			l9.89,3.87c8.88,3.58,15.91,9.74,15.76,20.49c-0.14,14.19-12.32,21.49-26.37,21.49C1067.5,316.64,1058.61,311.63,1053.03,305.04z"
			/>
		<path class="st4" d="M1117.36,305.04c-0.86-1-0.72-2.58,0.29-4.15l5.01-7.02c1.15-1.72,2.44-1.43,3.58-0.57
			c5.87,4.44,10.75,6.88,16.19,6.88c4.73,0,7.88-1.86,7.88-5.87c0-3.44-2.15-5.02-7.31-7.17l-8.88-3.58
			c-9.03-3.58-15.33-9.6-15.33-19.34c0-13.47,11.46-21.21,24.5-21.21c9.17,0,17.63,3.73,23.5,10.75c0.86,1,0.57,2.15-0.14,3.01
			l-6.3,7.59c-1,1.15-2.01,1-3.3,0c-4.58-3.87-8.6-5.87-12.75-5.87c-4.58,0-6.73,2.58-6.73,5.59c0,3.44,2.87,5.3,6.73,6.74
			l9.89,3.87c8.88,3.58,15.91,9.74,15.76,20.49c-0.14,14.19-12.32,21.49-26.37,21.49C1131.83,316.64,1122.95,311.63,1117.36,305.04z
			"/>
	</g>
</g>
</svg>
