<svg width="236" height="85" viewBox="0 0 236 85" fill="none" xmlns="http://www.w3.org/2000/svg">
<g clip-path="url(#clip0_126_713)">
<path d="M31.9791 30.7597C31.7272 30.4115 31.7272 30.0599 32.0805 29.6629L34.9872 26.3203C35.337 25.9199 35.7393 25.8711 36.1415 26.2193C38.3452 28.4651 40.3529 29.6629 43.2072 29.6629C46.0615 29.6629 48.1182 28.4164 48.1182 25.9199C48.1182 23.5765 46.3623 22.727 43.9068 21.6302L39.6464 19.635C35.9387 17.9393 32.6297 15.2931 32.6297 10.105C32.6297 3.76798 37.4917 0.275635 43.4555 0.275635C47.6145 0.275635 50.9725 1.92257 53.7288 4.86478C54.0785 5.21298 54.0785 5.61339 53.7777 6.01381L50.92 9.45742C50.6192 9.85784 50.2169 9.95533 49.8182 9.65588C47.6635 7.75824 45.9075 6.81117 43.7039 6.81117C41.147 6.81117 39.5449 8.05769 39.5449 10.1538C39.5449 12.2499 40.9476 12.9985 43.6549 14.245L47.2647 15.892C51.0739 17.6887 55.0824 20.032 55.0824 25.9199C55.0824 32.9533 49.318 36.1985 43.3541 36.1985C37.8905 36.1985 34.0323 33.5557 31.9756 30.7597H31.9791Z" fill="black"/>
<path d="M59.0454 23.3747C59.0454 16.1393 64.5091 10.5543 71.9245 10.5543C79.34 10.5543 84.7547 16.1428 84.7547 23.3747C84.7547 30.6066 79.291 36.1986 71.9245 36.1986C64.558 36.1986 59.0454 30.6101 59.0454 23.3747ZM71.9245 29.8615C75.3839 29.8615 78.0878 27.3685 78.0878 23.3747C78.0878 19.381 75.3804 16.8879 71.9245 16.8879C68.4686 16.8879 65.7088 19.381 65.7088 23.3747C65.7088 27.3685 68.4162 29.8615 71.9245 29.8615Z" fill="black"/>
<path d="M89.1692 26.1184V11.8983C89.1692 11.4491 89.47 11.1497 89.9212 11.1497H95.3359C95.7871 11.1497 96.088 11.4491 96.088 11.8983V24.5724C96.088 28.016 97.69 29.8614 100.649 29.8614C103.608 29.8614 105.462 28.016 105.462 24.5724V11.8983C105.462 11.4491 105.763 11.1497 106.214 11.1497H111.576C112.028 11.1497 112.377 11.4491 112.377 11.8983V34.8475C112.377 35.2967 112.028 35.5961 111.576 35.5961H106.414C105.962 35.5961 105.711 35.3977 105.662 34.7988L105.462 31.9053C104.06 34.4018 101.702 36.195 98.0433 36.195C92.8804 36.195 89.1727 32.5042 89.1727 26.1184H89.1692Z" fill="black"/>
<path d="M118.289 34.8511V11.9018C118.289 11.4527 118.589 11.1532 119.041 11.1532H124.253C124.704 11.1532 125.005 11.3517 125.005 11.9506L125.204 14.844C126.607 12.3475 128.964 10.5543 132.623 10.5543C137.737 10.5543 141.493 14.2451 141.493 20.631V34.8511C141.493 35.3002 141.144 35.5997 140.692 35.5997H135.33C134.879 35.5997 134.578 35.3002 134.578 34.8511V22.1769C134.578 18.7333 132.976 16.8879 130.017 16.8879C127.058 16.8879 125.204 18.7333 125.204 22.1769V34.8511C125.204 35.3002 124.903 35.5997 124.452 35.5997H119.037C118.586 35.5997 118.285 35.3002 118.285 34.8511H118.289Z" fill="black"/>
<path d="M146.156 23.3746C146.156 16.1392 150.917 10.5543 157.836 10.5543C161.243 10.5543 163.75 11.8008 165.405 13.9979V0.676098C165.405 0.226932 165.706 -0.0725098 166.157 -0.0725098H171.621C172.072 -0.0725098 172.373 0.226932 172.373 0.676098V34.851C172.373 35.3002 172.023 35.5996 171.572 35.5996H166.71C166.258 35.5996 165.958 35.3002 165.958 34.851L165.856 32.156C164.153 34.6525 161.494 36.1985 157.836 36.1985C150.92 36.1985 146.156 30.6588 146.156 23.3746ZM159.287 29.9102C162.946 29.9102 165.503 27.3162 165.503 23.3746C165.503 19.4331 162.946 16.8391 159.287 16.8391C155.628 16.8391 152.921 19.4819 152.921 23.3746C152.921 27.2674 155.628 29.9102 159.287 29.9102Z" fill="black"/>
<path d="M180.719 28.1867C180.719 24.3844 183.59 21.4457 187.49 21.4457C191.39 21.4457 194.238 24.3844 194.238 28.1867C194.238 31.9889 191.366 34.9276 187.49 34.9276C183.615 34.9276 180.719 31.9889 180.719 28.1867ZM187.49 31.5954C189.309 31.5954 190.733 30.2828 190.733 28.1867C190.733 26.0906 189.309 24.7779 187.49 24.7779C185.671 24.7779 184.223 26.0906 184.223 28.1867C184.223 30.2828 185.647 31.5954 187.49 31.5954Z" fill="black"/>
<path d="M197.561 34.2208V24.5655H196.032C195.794 24.5655 195.637 24.4088 195.637 24.172V22.1525C195.637 21.9157 195.794 21.759 196.032 21.759H197.561V19.7639C197.561 16.773 199.222 15.4359 201.989 15.4359C202.727 15.4359 203.28 15.4881 203.965 15.8294C204.123 15.9095 204.203 16.0661 204.203 16.2228V18.6114C204.203 18.796 204.046 18.8203 203.86 18.7959C203.437 18.7159 203.098 18.6636 202.808 18.6636C201.517 18.6636 201.227 19.3182 201.227 20.2653V21.7625H203.808C204.046 21.7625 204.203 21.9192 204.203 22.156V24.1755C204.203 24.4123 204.046 24.5689 203.808 24.5689H201.227V34.2243C201.227 34.461 201.069 34.6177 200.831 34.6177H197.96C197.722 34.6177 197.564 34.461 197.564 34.2243L197.561 34.2208Z" fill="black"/>
<path d="M0.019043 74.7294V41.3031C0.019043 40.8539 0.319859 40.5544 0.771083 40.5544H6.43412C6.88534 40.5544 7.18616 40.8539 7.18616 41.3031V55.175H20.0653V41.3031C20.0653 40.8539 20.3661 40.5544 20.8173 40.5544H26.4803C26.9316 40.5544 27.2324 40.8539 27.2324 41.3031V74.7294C27.2324 75.1785 26.9316 75.478 26.4803 75.478H20.8173C20.3661 75.478 20.0653 75.1785 20.0653 74.7294V61.4563H7.18616V74.7294C7.18616 75.1785 6.88534 75.478 6.43412 75.478H0.771083C0.319859 75.478 0.019043 75.1785 0.019043 74.7294Z" fill="black"/>
<path d="M32.3953 63.253C32.3953 56.0176 37.1558 50.4326 44.0746 50.4326C47.7823 50.4326 50.4407 51.9299 52.0952 54.4751L52.1966 51.7801C52.1966 51.331 52.4975 51.0315 52.9487 51.0315H57.8597C58.3109 51.0315 58.6117 51.331 58.6117 51.7801V74.7294C58.6117 75.1785 58.2619 75.478 57.8107 75.478H52.9487C52.4975 75.478 52.1966 75.1785 52.1966 74.7294L52.0952 72.0344C50.3918 74.5309 47.7334 76.0769 44.0746 76.0769C37.1593 76.0769 32.3953 70.5371 32.3953 63.253ZM45.5262 69.7885C49.185 69.7885 51.7419 67.1945 51.7419 63.253C51.7419 59.3115 49.185 56.7175 45.5262 56.7175C41.8675 56.7175 39.1601 59.3602 39.1601 63.253C39.1601 67.1458 41.8675 69.7885 45.5262 69.7885Z" fill="black"/>
<path d="M64.5754 84.207V51.7766C64.5754 51.3274 64.8763 51.028 65.3275 51.028H70.2909C70.7422 51.028 71.043 51.3274 71.043 51.7766L71.1444 54.4716C72.7989 51.9263 75.4048 50.4291 79.165 50.4291C86.0313 50.4291 90.7919 56.0175 90.7919 63.2495C90.7919 70.4814 86.0313 76.0733 79.165 76.0733C75.8071 76.0733 73.2501 74.7746 71.5467 72.581V84.207C71.5467 84.6562 71.2459 84.9557 70.7946 84.9557H65.331C64.8798 84.9557 64.5789 84.6562 64.5789 84.207H64.5754ZM77.7064 69.7885C81.3162 69.7885 84.0235 67.1944 84.0235 63.2529C84.0235 59.3114 81.3162 56.7174 77.7064 56.7174C74.0966 56.7174 71.4417 59.3114 71.4417 63.2529C71.4417 67.1944 73.9987 69.7885 77.7064 69.7885Z" fill="black"/>
<path d="M95.4966 84.207V51.7766C95.4966 51.3274 95.7974 51.028 96.2486 51.028H101.212C101.663 51.028 101.964 51.3274 101.964 51.7766L102.066 54.4716C103.72 51.9263 106.326 50.4291 110.086 50.4291C116.952 50.4291 121.713 56.0175 121.713 63.2495C121.713 70.4814 116.952 76.0733 110.086 76.0733C106.728 76.0733 104.171 74.7746 102.468 72.581V84.207C102.468 84.6562 102.167 84.9557 101.716 84.9557H96.2521C95.8009 84.9557 95.5001 84.6562 95.5001 84.207H95.4966ZM108.628 69.7885C112.237 69.7885 114.945 67.1944 114.945 63.2529C114.945 59.3114 112.237 56.7174 108.628 56.7174C105.018 56.7174 102.363 59.3114 102.363 63.2529C102.363 67.1944 104.92 69.7885 108.628 69.7885Z" fill="black"/>
<path d="M126.12 42.8455C126.12 40.7494 127.775 39.0537 129.978 39.0537C132.182 39.0537 133.788 40.7494 133.788 42.8455C133.788 44.9416 132.186 46.6861 129.978 46.6861C127.771 46.6861 126.12 44.9904 126.12 42.8455ZM126.47 51.7766C126.47 51.3274 126.771 51.028 127.222 51.028H132.686C133.137 51.028 133.438 51.3274 133.438 51.7766V74.7258C133.438 75.175 133.137 75.4745 132.686 75.4745H127.222C126.771 75.4745 126.47 75.175 126.47 74.7258V51.7766Z" fill="black"/>
<path d="M139.454 74.7294V51.7801C139.454 51.331 139.755 51.0315 140.206 51.0315H145.418C145.869 51.0315 146.17 51.23 146.17 51.8289L146.369 54.7223C147.772 52.2258 150.13 50.4326 153.788 50.4326C158.902 50.4326 162.659 54.1234 162.659 60.5093V74.7294C162.659 75.1785 162.309 75.478 161.858 75.478H156.496C156.045 75.478 155.744 75.1785 155.744 74.7294V62.0552C155.744 58.6116 154.142 56.7662 151.183 56.7662C148.223 56.7662 146.369 58.6116 146.369 62.0552V74.7294C146.369 75.1785 146.069 75.478 145.617 75.478H140.203C139.751 75.478 139.451 75.1785 139.451 74.7294H139.454Z" fill="black"/>
<path d="M167.318 63.152C167.318 55.9653 172.38 50.4291 179.949 50.4291C187.518 50.4291 191.726 55.9166 191.726 62.1039C191.726 64.4994 191.174 65.8469 189.019 65.8469H174.083C174.835 68.9389 177.392 70.6381 181.352 70.6381C183.258 70.6381 185.059 70.2899 187.064 69.1408C187.413 68.9424 187.665 68.9911 187.917 69.3393L189.771 71.8846C190.023 72.2328 189.97 72.5844 189.519 72.9814C187.413 75.0775 184.255 76.0768 180.799 76.0768C172.729 76.0768 167.318 70.5371 167.318 63.1554V63.152ZM185.563 61.0071C185.161 57.7655 182.957 56.1185 180.001 56.1185C177.046 56.1185 174.587 57.7655 173.985 61.0071H185.563Z" fill="black"/>
<path d="M195.088 72.0343C194.787 71.6861 194.836 71.136 195.189 70.5893L196.942 68.145C197.344 67.5461 197.795 67.6471 198.194 67.9466C200.247 69.4925 201.954 70.3421 203.857 70.3421C205.511 70.3421 206.613 69.6945 206.613 68.2982C206.613 67.1005 205.861 66.5503 204.056 65.8017L200.95 64.5552C197.792 63.3087 195.588 61.2125 195.588 57.8212C195.588 53.131 199.596 50.436 204.158 50.436C207.365 50.436 210.324 51.7348 212.378 54.1791C212.678 54.5273 212.577 54.9277 212.329 55.2271L210.125 57.8699C209.775 58.2703 209.422 58.2181 208.971 57.8699C207.369 56.5224 205.963 55.826 204.511 55.826C202.909 55.826 202.157 56.7244 202.157 57.7724C202.157 58.9702 203.161 59.6178 204.511 60.1192L207.97 61.4667C211.076 62.7132 213.535 64.8581 213.483 68.6012C213.434 73.542 209.174 76.0838 204.259 76.0838C200.149 76.0838 197.043 74.3359 195.088 72.0413V72.0343Z" fill="black"/>
<path d="M217.589 72.0343C217.289 71.6861 217.338 71.136 217.691 70.5893L219.443 68.145C219.846 67.5461 220.297 67.6471 220.696 67.9466C222.749 69.4925 224.456 70.3421 226.359 70.3421C228.013 70.3421 229.115 69.6945 229.115 68.2982C229.115 67.1005 228.363 66.5503 226.558 65.8017L223.452 64.5552C220.293 63.3087 218.09 61.2125 218.09 57.8212C218.09 53.131 222.098 50.436 226.659 50.436C229.867 50.436 232.826 51.7348 234.879 54.1791C235.18 54.5273 235.079 54.9277 234.83 55.2271L232.627 57.8699C232.277 58.2703 231.924 58.2181 231.472 57.8699C229.87 56.5224 228.464 55.826 227.013 55.826C225.411 55.826 224.659 56.7244 224.659 57.7724C224.659 58.9702 225.662 59.6178 227.013 60.1192L230.472 61.4667C233.578 62.7132 236.037 64.8581 235.985 68.6012C235.936 73.542 231.675 76.0838 226.761 76.0838C222.651 76.0838 219.545 74.3359 217.589 72.0413V72.0343Z" fill="black"/>
</g>
<defs>
<clipPath id="clip0_126_713">
<rect width="236" height="85" fill="white"/>
</clipPath>
</defs>
</svg>
