<svg width="93" height="92" viewBox="0 0 93 92" fill="none" xmlns="http://www.w3.org/2000/svg">
<path d="M92.1444 46C92.1444 71.4112 71.5122 92 46.0722 92C20.6321 92 0 71.4112 0 46C0 20.5888 20.6177 0 46.0722 0C71.5267 0 92.1444 20.5888 92.1444 46Z" fill="#EA5321"/>
<path d="M54.1141 46.8664L41.4374 53.1325C40.9465 53.4069 39.2428 53.0459 39.2428 52.4828V39.6184C39.2428 39.0409 40.9465 38.6944 41.4374 38.9687L53.5799 45.567C54.0853 45.8557 54.6195 46.5921 54.1141 46.8664ZM70.7469 39.3152C70.7469 33.2223 65.7946 28.27 59.6873 28.27H31.4029C25.2956 28.27 20.3433 33.2223 20.3433 39.3152V52.454C20.3433 58.5613 25.2956 63.4992 31.4029 63.4992H59.6873C65.7946 63.4992 70.7469 58.5469 70.7469 52.454V39.3152Z" fill="white"/>
</svg>
