<svg width="93" height="92" viewBox="0 0 93 92" fill="none" xmlns="http://www.w3.org/2000/svg">
<path d="M92.1444 46C92.1444 71.4112 71.5122 92 46.0722 92C20.6321 92 0 71.4112 0 46C0 20.5888 20.6177 0 46.0722 0C71.5267 0 92.1444 20.5888 92.1444 46Z" fill="#EA5321"/>
<path d="M46.2888 54.4464C41.5964 54.4464 37.7702 50.6347 37.7702 45.9423C37.7702 41.2499 41.5964 37.4382 46.2888 37.4382C50.9812 37.4382 54.8073 41.2499 54.8073 45.9423C54.8073 50.6347 50.9812 54.4464 46.2888 54.4464ZM46.2888 32.6592C38.9542 32.6592 32.9912 38.6221 32.9912 45.9423C32.9912 53.2624 38.9542 59.2254 46.2888 59.2254C53.6233 59.2254 59.5863 53.2624 59.5863 45.9423C59.5863 38.6221 53.6233 32.6592 46.2888 32.6592Z" fill="white"/>
<path d="M35.2861 24.0536C29.1355 24.0536 24.1398 29.0492 24.1398 35.1855V56.7128C24.1398 62.849 29.1355 67.8446 35.2861 67.8446H56.8567C63.0074 67.8446 68.003 62.849 68.003 56.7128V35.1855C68.003 29.0492 63.0074 24.0536 56.8567 24.0536H35.2861ZM56.8567 72.9124H35.2861C26.3344 72.9124 19.0576 65.65 19.0576 56.7128V35.1855C19.0576 26.2482 26.3344 18.9858 35.2861 18.9858H56.8567C65.8084 18.9858 73.0852 26.2482 73.0852 35.1855V56.7128C73.0852 65.65 65.8084 72.9124 56.8567 72.9124Z" fill="white"/>
</svg>
