<svg width="94" height="92" viewBox="0 0 94 92" fill="none" xmlns="http://www.w3.org/2000/svg">
<path d="M93.6547 46C93.6547 20.6001 72.6968 0 46.8348 0C20.9728 0 0 20.6001 0 46C0 68.9553 17.127 87.9904 39.5159 91.4336V59.2962H27.6209V46H39.5159V35.8639C39.5159 24.3416 46.5068 17.9618 57.1945 17.9618C62.3222 17.9618 67.6734 18.8561 67.6734 18.8561V30.1698H61.7706C55.9573 30.1698 54.1387 33.7175 54.1387 37.3545V45.9851H67.1219L65.05 59.2813H54.1387V91.4187C76.5276 87.9755 93.6547 68.9404 93.6547 45.9851" fill="#EA5321"/>
<path d="M65.0506 59.2961L67.1226 45.9999H54.1394V37.3693C54.1394 33.7322 55.958 30.1846 61.7713 30.1846H67.6741V18.8709C67.6741 18.8709 62.3079 17.9766 57.1952 17.9766C46.4926 17.9766 39.5166 24.3414 39.5166 35.8638V45.9999H27.6216V59.2961H39.5166V91.4335C41.9016 91.8062 44.3462 92 46.8355 92C49.3248 92 51.7694 91.8062 54.1543 91.4335V59.2961H65.0656H65.0506Z" fill="white"/>
</svg>
